<?xml version="1.0" encoding="utf-8"?>
<svg version="1.1" xmlns="http://www.w3.org/2000/svg" xmlns:xlink="http://www.w3.org/1999/xlink" x="0px" y="0px"
	 viewBox="0 0 32 32" xml:space="preserve">
<path d="M25.2597103,12.2408514H21.320879V7.7583785
	C21.320879,4.8244095,18.9339695,2.4375,16,2.4375s-5.320879,2.3869095-5.320879,5.3208785v4.4824729H6.7402892
	c-0.4826365,0-0.8752961,0.3926601-0.8752961,0.8752966v11.3511353c0,2.8094425,2.2857752,5.0952168,5.0952168,5.0952168h9.5958643
	c3.0761337,0,5.5789337-2.5026188,5.5789337-5.5789318V13.116148
	C26.1350079,12.6335115,25.7423477,12.2408514,25.2597103,12.2408514z M11.416213,7.7583785
	c0-2.5274534,2.0561533-4.583787,4.583787-4.583787s4.5837879,2.0563338,4.5837879,4.583787v4.4824729H11.416213V7.7583785z
	 M25.3979149,23.9835682c0,2.669796-2.1720428,4.8418407-4.8418407,4.8418407h-9.5958643
	c-2.4031057,0-4.3581252-1.9550209-4.3581252-4.3581257V13.116148c0-0.0761204,0.061904-0.1382046,0.1382046-0.1382046h3.9388318
	v4.2199192c0,0.2035294,0.1648378,0.3685474,0.3685465,0.3685474c0.2037077,0,0.3685455-0.1650181,0.3685455-0.3685474v-4.2199192
	h9.1675749v4.2199192c0,0.2035294,0.1648369,0.3685474,0.3685455,0.3685474c0.2037067,0,0.3685455-0.1650181,0.3685455-0.3685474
	v-4.2199192h3.9388313c0.0763016,0,0.1382046,0.0620842,0.1382046,0.1382046V23.9835682z"/>
</svg>
