<?xml version="1.0" standalone="no"?>
<!DOCTYPE svg PUBLIC "-//W3C//DTD SVG 20010904//EN"
 "http://www.w3.org/TR/2001/REC-SVG-20010904/DTD/svg10.dtd">
<svg version="1.0" xmlns="http://www.w3.org/2000/svg"
 width="16.000000pt" height="16.000000pt" viewBox="0 0 16.000000 16.000000"
 preserveAspectRatio="xMidYMid meet">
<metadata>
Created by potrace 1.11, written by Peter Selinger 2001-2013
</metadata>
<g transform="translate(0.000000,16.000000) scale(0.002667,-0.002667)"
fill="#000000" stroke="none">
<path d="M0 3000 l0 -3000 3000 0 3000 0 0 3000 0 3000 -3000 0 -3000 0 0
-3000z m2758 1413 c-2 -11 -17 -20 -41 -25 -86 -18 -120 -70 -119 -182 1 -82
28 -195 71 -298 98 -234 737 -1645 743 -1640 18 19 498 1227 513 1292 40 175
14 408 -62 554 -85 163 -261 276 -430 276 -36 0 -43 3 -43 20 0 20 7 20 700
20 677 0 700 -1 700 -19 0 -15 -10 -20 -57 -25 -182 -20 -380 -197 -570 -508
-126 -207 -212 -405 -674 -1553 l-467 -1160 -68 -3 -69 -3 -199 438 c-553
1216 -1026 2247 -1135 2474 -106 223 -179 303 -290 316 -41 5 -51 9 -51 24 0
18 26 19 776 19 726 0 775 -1 772 -17z"/>
</g>
</svg>
