<?xml version="1.0" standalone="no"?>
<!DOCTYPE svg PUBLIC "-//W3C//DTD SVG 1.1//EN" "http://www.w3.org/Graphics/SVG/1.1/DTD/svg11.dtd" >
<svg xmlns="http://www.w3.org/2000/svg">
<metadata></metadata>
<defs>
<font id="maison_neuelight" horiz-adv-x="1204" >
<font-face units-per-em="2048" ascent="1587" descent="-461" />
<missing-glyph horiz-adv-x="512" />
<glyph unicode="&#xfb01;" horiz-adv-x="1112" d="M72 963v122h151v107q0 135 57.5 188.5t163.5 53.5h142v-123h-119q-68 0 -89.5 -25.5t-21.5 -114.5v-86h555v-1085h-133v963h-422v-963h-133v963h-151zM762 1264v170h166v-170h-166z" />
<glyph unicode="&#xfb02;" horiz-adv-x="1079" d="M72 963v122h151v107q0 135 57.5 188.5t163.5 53.5h142v-123h-119q-68 0 -89.5 -25.5t-21.5 -114.5v-86h406v410h133v-1495h-133v963h-406v-963h-133v963h-151z" />
<glyph horiz-adv-x="0" />
<glyph horiz-adv-x="0" />
<glyph horiz-adv-x="682" />
<glyph unicode="&#xd;" horiz-adv-x="681" />
<glyph unicode=" "  horiz-adv-x="512" />
<glyph unicode="&#x09;" horiz-adv-x="512" />
<glyph unicode="&#xa0;" horiz-adv-x="512" />
<glyph unicode="!" horiz-adv-x="667" d="M225 0v217h217v-217h-217zM268 412v1022h133v-1022h-133z" />
<glyph unicode="&#x22;" horiz-adv-x="780" d="M164 991v443h112v-443h-112zM422 991v443h113v-443h-113z" />
<glyph unicode="#" horiz-adv-x="1406" d="M164 643v102h272l21 277h-230v100h236l22 312h113l-23 -312h299l23 312h113l-23 -312h256v-100h-262l-20 -277h219v-102h-226l-20 -307h-113l21 307h-299l-21 -307h-112l20 307h-266zM551 745h297l20 277h-299z" />
<glyph unicode="$" horiz-adv-x="1370" d="M133 500l139 24q33 -201 114 -301t261 -121l2 598q-223 57 -334.5 150.5t-111.5 241.5q0 154 120.5 260t327.5 112v123h82v-127q182 -16 297 -115.5t139 -277.5l-139 -25q-25 129 -91.5 202t-207.5 87v-516q289 -80 397.5 -175t108.5 -263q0 -178 -130 -293t-374 -115h-4 v-170h-82v174q-453 42 -514 527zM340 1092q0 -88 68.5 -148.5t240.5 -105.5v497q-152 -4 -230.5 -72.5t-78.5 -170.5zM729 98h10q186 0 274.5 82t88.5 203q0 106 -74 169t-297 126z" />
<glyph unicode="%" horiz-adv-x="1980" d="M164 1057q0 190 101.5 295.5t236.5 105.5q137 0 238.5 -105.5t101.5 -295.5q0 -195 -89 -311.5t-251 -116.5t-250 115.5t-88 312.5zM287 1057q0 -147 55 -232.5t159.5 -85.5t161 86t56.5 231.5t-58.5 218.5t-159 73t-157.5 -74t-57 -217zM416 -82l1001 1669l90 -57 l-999 -1667zM1139 403q0 190 101 296t237 106q137 0 238.5 -105.5t101.5 -296.5q0 -195 -89.5 -311.5t-251 -116.5t-249.5 116t-88 312zM1262 403q0 -147 55 -232t159.5 -85t161 86t56.5 231.5t-58.5 218t-159 72.5t-157.5 -73.5t-57 -217.5z" />
<glyph unicode="&#x26;" horiz-adv-x="1439" d="M143 373q0 162 89.5 274.5t197.5 179.5l-47 50q-117 123 -117 276q0 123 96.5 217t258.5 94q150 0 250 -78.5t128 -220.5l-129 -35q-45 211 -252 211q-104 0 -163.5 -55t-59.5 -145q0 -109 137 -230l441 -381h4v287h125v-391l276 -248l-82 -98l-221 192 q-35 -123 -155.5 -213t-319.5 -90q-188 0 -322.5 99.5t-134.5 304.5zM276 391q0 -147 96.5 -220t229.5 -73q156 0 251.5 76t113.5 191l-445 378q-88 -45 -167 -139t-79 -213z" />
<glyph unicode="'" horiz-adv-x="522" d="M205 991v443h112v-443h-112z" />
<glyph unicode="(" horiz-adv-x="796" d="M184 600q0 170 38 332t87 268.5t116 204.5t101.5 136t65.5 69l82 -68q-168 -176 -267.5 -395t-99.5 -545q1 -502 363 -940l-78 -65q-35 33 -90.5 109.5t-133 208.5t-131 316.5t-53.5 368.5z" />
<glyph unicode=")" horiz-adv-x="796" d="M82 1542l82 68q31 -31 65.5 -69t101 -136t116 -204.5t87 -268.5t37.5 -332q0 -184 -53 -368.5t-131 -316.5t-133 -208.5t-90 -109.5l-78 65q362 438 363 940q0 326 -99.5 545t-267.5 395z" />
<glyph unicode="*" horiz-adv-x="1024" d="M143 1176l60 96l252 -146v308h114v-308l252 146l60 -96l-256 -154l192 -234l-88 -79l-217 276l-217 -276l-88 79l192 234z" />
<glyph unicode="+" horiz-adv-x="1183" d="M123 733v113h407v414h123v-414h408v-113h-408v-467h-123v467h-407z" />
<glyph unicode="," horiz-adv-x="626" d="M205 0v217h217v-186q0 -214 -217 -230v78q96 16 96 121h-96z" />
<glyph unicode="-" horiz-adv-x="919" d="M123 641v133h674v-133h-674z" />
<glyph unicode="." horiz-adv-x="626" d="M205 0v217h217v-217h-217z" />
<glyph unicode="/" horiz-adv-x="937" d="M51 -33l737 1557l99 -45l-737 -1553z" />
<glyph unicode="0" horiz-adv-x="1282" d="M113 735q0 350 145 539.5t383 189.5t383 -189.5t145 -539.5q0 -360 -138 -563t-390 -203t-390 203t-138 563zM252 737q0 -293 100.5 -469t288.5 -176t288.5 176t100.5 469q0 285 -102.5 444.5t-286.5 159.5t-286.5 -159.5t-102.5 -444.5z" />
<glyph unicode="1" horiz-adv-x="913" d="M154 1081v148l329 205h103v-1434h-123v1276z" />
<glyph unicode="2" horiz-adv-x="1183" d="M133 1004q8 215 138 337.5t331 122.5q213 0 330 -120.5t117 -282.5q0 -53 -11.5 -100.5t-25 -81t-46 -70.5t-51 -56.5t-65.5 -51t-64.5 -42t-75 -42t-69.5 -37.5q-20 -12 -64.5 -36t-60.5 -33t-48 -28.5t-47 -31t-37 -28.5t-35 -33.5t-25 -35.5q-49 -78 -50 -223h777 v-131h-912v102q0 197 68 310q41 66 113.5 120t205.5 127q231 127 310 201t79 205q0 102 -78.5 189t-234.5 87q-150 0 -241 -92t-97 -258z" />
<glyph unicode="3" horiz-adv-x="1198" d="M102 471l131 25q27 -209 113 -306.5t260 -97.5q168 0 252 89t84 216q0 160 -99.5 239t-262.5 79h-70v123h29q360 0 360 247q0 119 -81 187.5t-214 68.5q-129 0 -204.5 -76.5t-92.5 -213.5l-131 22q20 178 136 284.5t292 106.5q186 0 307 -99t121 -280 q0 -123 -70.5 -200.5t-164.5 -98.5v-4q123 -29 200.5 -129t77.5 -256q0 -186 -133 -307t-334 -121q-211 0 -344 122t-162 380z" />
<glyph unicode="4" horiz-adv-x="1138" d="M82 350v121l586 963h206v-961h183v-123h-183v-350h-133v350h-659zM219 473h522v856h-4z" />
<glyph unicode="5" horiz-adv-x="1212" d="M123 371l129 39q84 -317 369 -318q166 0 261 104.5t95 282.5q0 168 -94.5 266.5t-251.5 98.5q-217 0 -332 -180l-129 51l129 719h692v-123h-590l-90 -496l2 -2q127 145 340 145q188 0 322.5 -131t134.5 -348q0 -231 -137 -370.5t-352 -139.5q-195 0 -325 111t-173 291z " />
<glyph unicode="6" horiz-adv-x="1308" d="M133 692q0 346 155.5 559t387.5 213q184 0 293.5 -103t140.5 -259l-123 -33q-70 272 -309 272q-162 0 -284 -163.5t-122 -483.5l4 -2q25 76 143 167t298 91q193 0 331 -132t138 -345q0 -236 -137.5 -370t-354.5 -134q-106 0 -201.5 39t-178.5 120t-132 226.5t-49 337.5z M322 473q0 -158 106 -269.5t266 -111.5q170 0 264.5 100.5t94.5 274.5q0 168 -98.5 266t-264.5 98q-156 0 -262 -104t-106 -254z" />
<glyph unicode="7" horiz-adv-x="1013" d="M51 1311v123h881v-140l-686 -1294h-170l710 1307v4h-735z" />
<glyph unicode="8" horiz-adv-x="1181" d="M94 403q0 139 83 240.5t196 132.5v4q-203 88 -203 320q0 145 113.5 254.5t306 109.5t305.5 -109.5t113 -254.5q0 -238 -201 -320v-4q113 -33 196.5 -133t83.5 -240q0 -207 -136 -320.5t-361 -113.5t-360.5 114t-135.5 320zM236 403.5q0 -137.5 91 -221.5t263 -84t263 84 t91 221.5t-100.5 221.5t-254 84t-253.5 -84t-100 -221.5zM303 1085q0 -113 80 -186.5t207 -73.5t205.5 74t78.5 186q0 109 -71.5 183.5t-212.5 74.5q-143 0 -215 -74.5t-72 -183.5z" />
<glyph unicode="9" horiz-adv-x="1255" d="M113 985q0 215 136 347t329 132q252 0 393 -186t141 -561q0 -205 -40 -355.5t-111.5 -233.5t-157.5 -121t-189 -38q-164 0 -282.5 95.5t-157.5 267.5l129 37q27 -119 103.5 -198t207.5 -79q360 0 369 643h-6q-8 -27 -31.5 -60.5t-66.5 -76.5t-120 -71.5t-169 -28.5 q-211 0 -344 134t-133 353zM246 985q0 -168 94 -266t250 -98q154 0 249 102t95 256t-100.5 258t-255.5 104q-143 0 -237.5 -96t-94.5 -260z" />
<glyph unicode=":" horiz-adv-x="626" d="M205 0v217h217v-217h-217zM205 868v217h217v-217h-217z" />
<glyph unicode=";" horiz-adv-x="626" d="M205 0v217h217v-186q0 -214 -217 -230v78q96 16 96 121h-96zM205 868v217h217v-217h-217z" />
<glyph unicode="&#x3c;" horiz-adv-x="1110" d="M123 649v144l801 477l63 -103l-749 -446l747 -453l-63 -100z" />
<glyph unicode="=" horiz-adv-x="1234" d="M143 526v123h949v-123h-949zM143 860v123h949v-123h-949z" />
<glyph unicode="&#x3e;" horiz-adv-x="1110" d="M82 1167l63 103l801 -477v-144l-799 -481l-63 100l747 453z" />
<glyph unicode="?" horiz-adv-x="1034" d="M82 1034q8 188 120.5 309t317.5 121q182 0 297 -102t115 -266q0 -94 -32 -166t-70.5 -110t-124.5 -107q-23 -18 -58 -46t-48 -39.5t-34.5 -29.5t-29 -29.5t-16.5 -27t-12 -30.5t-3 -34v-112h-133v129q0 63 29.5 111t129.5 126q78 59 108 84t77 74t64.5 97t17.5 108 q0 96 -67.5 172.5t-211.5 76.5q-283 0 -303 -323zM334 0v217h217v-217h-217z" />
<glyph unicode="@" horiz-adv-x="1513" d="M123 707q0 330 173 543.5t470 213.5q299 0 462 -207.5t163 -527.5q0 -434 -277 -434q-125 0 -174 94h-4q-53 -90 -207 -94q-125 -2 -200.5 60.5t-75.5 170.5q0 94 51 150.5t162 89.5l112 33q78 23 112 47t34 69q0 53 -40 87t-116 34q-143 0 -180 -162l-99 25 q16 102 90 168t183 66q121 0 193.5 -62.5t72.5 -185.5v-406q0 -47 19.5 -68.5t68.5 -21.5q92 0 134 81t42 253q0 289 -133 469t-393 180q-258 0 -401.5 -185.5t-143.5 -479.5q0 -291 134 -468.5t403 -177.5q158 0 291 86l47 -84q-133 -94 -338 -94q-309 0 -472 203t-163 535 zM561 530q0 -82 52.5 -108.5t136.5 -26.5q74 0 126 44t52 126v207h-4q-16 -35 -101 -57l-129 -37q-133 -39 -133 -148z" />
<glyph unicode="A" horiz-adv-x="1269" d="M51 0l514 1434h140l514 -1434h-134l-108 309h-684l-109 -309h-133zM332 416h606l-301 856h-4z" />
<glyph unicode="B" horiz-adv-x="1329" d="M205 0v1434h530q197 0 307.5 -101.5t110.5 -265.5q0 -111 -54.5 -187.5t-140.5 -109.5v-6q102 -27 175 -117t73 -231q0 -201 -126 -308.5t-369 -107.5h-506zM338 123h356q379 0 379 293q0 141 -90 208.5t-283 67.5h-362v-569zM338 819h369q313 0 313 248q0 117 -84 180.5 t-234 63.5h-364v-492z" />
<glyph unicode="C" horiz-adv-x="1382" d="M123 729q0 350 176 542.5t426 192.5q217 0 363.5 -138t177.5 -355l-138 -27q-31 172 -130 281.5t-273 109.5q-199 0 -329 -153.5t-130 -452.5q0 -303 127 -465t332 -162q356 0 403 424l142 -20q-23 -252 -169.5 -394.5t-375.5 -142.5q-121 0 -225.5 43t-190.5 130 t-136 237.5t-50 349.5z" />
<glyph unicode="D" horiz-adv-x="1376" d="M205 0v1434h438q123 0 231.5 -43t196.5 -127t140.5 -224.5t52.5 -320.5q0 -197 -53.5 -342.5t-145.5 -224t-199.5 -115.5t-234.5 -37h-426zM338 123h272q510 0 510 596q0 281 -132 436.5t-365 155.5h-285v-1188z" />
<glyph unicode="E" d="M205 0v1434h846v-123h-713v-512h655v-119h-655v-557h713v-123h-846z" />
<glyph unicode="F" horiz-adv-x="1165" d="M205 0v1434h848v-123h-715v-563h657v-119h-657v-629h-133z" />
<glyph unicode="G" horiz-adv-x="1394" d="M123 729q0 350 176 542.5t426 192.5q209 0 350.5 -130t179.5 -337l-141 -26q-80 364 -387 364h-2q-199 0 -329 -153.5t-130 -452.5q0 -305 127 -468t332 -163q195 0 305 123q105 119 105 321v15h-394v129h531v-121q0 -281 -150.5 -438.5t-396.5 -157.5q-121 0 -225.5 43 t-190.5 130t-136 237.5t-50 349.5z" />
<glyph unicode="H" horiz-adv-x="1366" d="M205 0v1434h133v-629h690v629h133v-1434h-133v682h-690v-682h-133z" />
<glyph unicode="I" horiz-adv-x="563" d="M215 0v1434h133v-1434h-133z" />
<glyph unicode="J" horiz-adv-x="927" d="M61 319l136 35q10 -53 22 -92t34.5 -80t60.5 -62.5t89 -21.5q111 0 154 60.5t43 214.5v1061h133v-1080q0 -201 -80 -293t-250 -92q-147 0 -231 94t-111 256z" />
<glyph unicode="K" horiz-adv-x="1189" d="M184 0v1434h133v-729h5l612 729h172l-522 -619l585 -815h-161l-514 715h-5l-172 -203v-512h-133z" />
<glyph unicode="L" horiz-adv-x="1042" d="M205 0v1434h133v-1311h633v-123h-766z" />
<glyph unicode="M" horiz-adv-x="1753" d="M205 0v1434h207l462 -1151h5l464 1151h205v-1434h-133v1270h-4l-520 -1270h-29l-520 1270h-4v-1270h-133z" />
<glyph unicode="N" horiz-adv-x="1396" d="M205 0v1434h182l668 -1244h4v1244h133v-1434h-176l-674 1243h-4v-1243h-133z" />
<glyph unicode="O" horiz-adv-x="1439" d="M123 729q0 350 176 542.5t426 192.5q244 0 418 -196.5t174 -548.5q0 -199 -49 -348.5t-134 -234.5t-187.5 -126t-221.5 -41q-121 0 -225.5 43t-190.5 130t-136 237.5t-50 349.5zM266 729q0 -305 127 -468t332 -163q201 0 325 159t124 462q0 299 -128 457.5t-321 158.5 q-199 0 -329 -153.5t-130 -452.5z" />
<glyph unicode="P" horiz-adv-x="1269" d="M205 0v1434h540q209 0 341.5 -114t132.5 -323t-129 -321.5t-340 -112.5h-412v-563h-133zM338 686h399q150 0 249 77t99 234.5t-100 235.5t-252 78h-395v-625z" />
<glyph unicode="Q" horiz-adv-x="1439" d="M123 729q0 350 176 542.5t426 192.5q244 0 418 -196.5t174 -548.5q0 -338 -154 -539l135 -133l-84 -80l-131 129q-152 -127 -358 -127q-121 0 -225.5 43t-190.5 130t-136 237.5t-50 349.5zM266 729q0 -305 127 -468t332 -163q162 0 266 90l-377 377l84 80l371 -371 q104 160 105 445q0 299 -128 457.5t-321 158.5q-199 0 -329 -153.5t-130 -452.5z" />
<glyph unicode="R" horiz-adv-x="1320" d="M205 0v1434h540q225 0 349.5 -102.5t124.5 -313.5q0 -178 -100.5 -280.5t-268.5 -127.5l324 -610h-154l-313 604h-369v-604h-133zM338 727h399q154 0 251 67.5t97 223.5q0 293 -352 293h-395v-584z" />
<glyph unicode="S" horiz-adv-x="1269" d="M113 500l139 24q33 -223 128 -324.5t314 -101.5q176 0 262 81t86 194q0 106 -76.5 171.5t-328.5 147.5q-244 78 -349.5 166t-105.5 240q0 154 120 260t320.5 106t331.5 -101t156 -296l-139 -25q-25 141 -104 217t-244 76q-145 0 -224.5 -68.5t-79.5 -168.5 q0 -90 67 -145.5t288 -129.5q301 -100 402.5 -191t101.5 -255q0 -172 -128 -290t-362 -118q-512 1 -575 531z" />
<glyph unicode="T" horiz-adv-x="1157" d="M61 1311v123h1035v-123h-451v-1311h-133v1311h-451z" />
<glyph unicode="U" horiz-adv-x="1345" d="M174 467v967h133v-955q0 -381 365 -381q180 0 273 95.5t93 281.5v959h133v-967q0 -246 -129 -372t-370.5 -126t-369.5 126t-128 372z" />
<glyph unicode="V" horiz-adv-x="1271" d="M51 1434h144l444 -1299h4l434 1299h144l-490 -1434h-180z" />
<glyph unicode="W" horiz-adv-x="1859" d="M102 1434h138l229 -1270h4l363 1270h188l362 -1270h5l229 1270h137l-268 -1434h-174l-383 1290h-6l-381 -1290h-187z" />
<glyph unicode="X" horiz-adv-x="1163" d="M61 0l441 739l-412 695h148l340 -588h4l321 588h148l-392 -695l443 -739h-148l-370 633h-4l-371 -633h-148z" />
<glyph unicode="Y" horiz-adv-x="1155" d="M41 1434h149l385 -703h7l383 703h149l-473 -830v-604h-127v604z" />
<glyph unicode="Z" horiz-adv-x="1263" d="M123 0v98l852 1217v4h-782v115h948v-99l-852 -1208v-4h831v-123h-997z" />
<glyph unicode="[" horiz-adv-x="772" d="M184 -373v1868h486v-102h-373v-1663h373v-103h-486z" />
<glyph unicode="\" horiz-adv-x="937" d="M51 1479l99 45l737 -1557l-99 -41z" />
<glyph unicode="]" horiz-adv-x="772" d="M102 -270h373v1663h-373v102h486v-1868h-486v103z" />
<glyph unicode="^" horiz-adv-x="1105" d="M164 666l354 768h70l354 -768h-137l-252 577l-254 -577h-135z" />
<glyph unicode="_" horiz-adv-x="1314" d="M143 -143h1028v-123h-1028v123z" />
<glyph unicode="`" horiz-adv-x="585" d="M123 1464h180l160 -245h-121z" />
<glyph unicode="a" horiz-adv-x="1103" d="M113 274.5q0 133.5 81.5 211t280.5 128.5q63 16 86 22.5t73 22t69.5 27.5t46 32.5t37 44t10.5 52.5q0 78 -59.5 128t-182.5 50q-231 0 -276 -229l-127 29q20 145 124.5 234t272.5 89q391 0 391 -371v-745h-123v125h-4q-33 -61 -124 -108.5t-220 -47.5q-174 0 -265 86 t-91 219.5zM246 283q0 -190 233 -191q156 0 242 73t86 179v299h-4q-27 -63 -293 -137q-154 -43 -209 -92t-55 -131z" />
<glyph unicode="b" horiz-adv-x="1216" d="M184 0v1495h133v-514h5q113 135 311 135q207 0 339 -157.5t132 -415.5q0 -262 -128 -418t-343 -156q-104 0 -190.5 39t-137.5 96h-4v-104h-117zM317 332q0 -96 85 -168t210 -72q176 0 267.5 119t91.5 332q0 211 -92.5 330.5t-266.5 119.5q-133 0 -214 -87t-81 -191v-383z " />
<glyph unicode="c" horiz-adv-x="1144" d="M113 543q0 268 139 420.5t348 152.5q174 0 298 -112.5t142 -288.5l-131 -21q-20 127 -97 213t-210 86q-160 0 -258 -118.5t-98 -331.5q0 -215 95 -333t259 -118q139 0 215 93.5t94 222.5l133 -25q-18 -176 -140 -295t-302 -119q-219 0 -353 150.5t-134 423.5z" />
<glyph unicode="d" horiz-adv-x="1216" d="M113 543q0 258 132 415.5t339 157.5q199 0 311 -135h4v514h133v-1495h-117v104h-4q-51 -57 -137 -96t-190 -39q-215 0 -343 156t-128 418zM246 543q0 -213 91 -332t267 -119q125 0 210 72t85 168v383q0 104 -81 191t-214 87q-174 0 -266 -119.5t-92 -330.5z" />
<glyph unicode="e" d="M113 543q0 260 138 416.5t355 156.5q219 0 352.5 -151.5t133.5 -421.5v-39h-844q0 -166 93 -289t269 -123q70 0 127.5 18.5t90 40t63.5 60.5t40 57t25 51l113 -61q-53 -123 -170 -206t-285 -83q-219 0 -360 157t-141 417zM252 616h702q0 66 -17 128.5t-55 121t-110 93 t-166 34.5t-166.5 -39t-111.5 -99t-57.5 -122t-18.5 -117z" />
<glyph unicode="f" horiz-adv-x="663" d="M72 963v122h151v107q0 135 57.5 188.5t163.5 53.5h162v-123h-139q-68 0 -89.5 -25.5t-21.5 -114.5v-86h267v-122h-267v-963h-133v963h-151z" />
<glyph unicode="g" horiz-adv-x="1206" d="M113 543q0 258 132 415.5t339 157.5q199 0 311 -135h4v104h133v-1105q0 -231 -108.5 -351.5t-309.5 -120.5q-164 0 -270 83.5t-149 220.5l122 49q72 -229 293 -230q139 0 214 84t75 228v147h-4q-117 -121 -311 -121q-215 0 -343 156t-128 418zM246 543q0 -213 91 -332 t267 -119q125 0 210 72t85 168v383q0 104 -81 191t-214 87q-174 0 -266 -119.5t-92 -330.5z" />
<glyph unicode="h" d="M184 0v1495h133v-526h5q51 66 139 106.5t188 40.5q172 0 276.5 -104.5t104.5 -306.5v-705h-133v664q0 329 -260 329h-2q-139 0 -228.5 -82t-89.5 -229v-682h-133z" />
<glyph unicode="i" horiz-adv-x="534" d="M184 1264v170h166v-170h-166zM201 0v1085h133v-1085h-133z" />
<glyph unicode="j" horiz-adv-x="518" d="M61 -266h29q51 0 74.5 22.5t23.5 100.5v1228h134v-1220q0 -150 -53.5 -207t-155.5 -57h-52v133zM168 1264v170h166v-170h-166z" />
<glyph unicode="k" horiz-adv-x="1081" d="M184 0v1495h133v-922h5l479 512h184l-397 -426l452 -659h-159l-392 567h-4l-168 -178v-389h-133z" />
<glyph unicode="l" horiz-adv-x="501" d="M184 0v1495h133v-1495h-133z" />
<glyph unicode="m" horiz-adv-x="1728" d="M184 0v1085h119v-104h4q41 59 119 97t164 38q197 0 287 -164h4q39 63 125 113.5t190 50.5q164 0 261 -101.5t97 -277.5v-737h-133v688q0 305 -233 305q-119 0 -186.5 -75.5t-67.5 -215.5v-702h-133v688q0 158 -56.5 231.5t-177.5 73.5q-127 0 -188.5 -82t-61.5 -209v-702 h-133z" />
<glyph unicode="n" horiz-adv-x="1212" d="M184 0v1085h133v-104h5q43 59 132 97t183 38q176 0 288.5 -108.5t112.5 -294.5v-713h-133v664q0 162 -70.5 245.5t-205.5 83.5q-137 0 -224.5 -76.5t-87.5 -214.5v-702h-133z" />
<glyph unicode="o" horiz-adv-x="1189" d="M113 543q0 266 141 419.5t346 153.5q201 0 339 -153.5t138 -419.5q0 -270 -134 -422t-343 -152q-213 0 -350 152.5t-137 421.5zM246 543q0 -215 101 -333t253 -118q147 0 245.5 120t98.5 331q0 213 -97 331.5t-247 118.5q-156 0 -255 -117.5t-99 -332.5z" />
<glyph unicode="p" horiz-adv-x="1216" d="M184 -461v1546h127v-104h4q47 59 133.5 97t184.5 38q207 0 339 -157.5t132 -415.5q0 -262 -128 -418t-343 -156q-94 0 -182.5 39t-128.5 96h-5v-565h-133zM317 332q0 -96 85 -168t210 -72q176 0 267.5 119t91.5 332q0 211 -92.5 330.5t-266.5 119.5q-133 0 -214 -87 t-81 -191v-383z" />
<glyph unicode="q" horiz-adv-x="1216" d="M113 543q0 258 132 415.5t339 157.5q98 0 184 -38t133 -97h4v104h127v-1546h-133v565h-4q-106 -135 -311 -135q-215 0 -343 156t-128 418zM246 543q0 -213 91 -332t267 -119q125 0 210 72t85 168v383q0 104 -81 191t-214 87q-174 0 -266 -119.5t-92 -330.5z" />
<glyph unicode="r" horiz-adv-x="706" d="M184 0v1085h129v-116h4q35 68 97.5 101.5t128.5 33.5q27 0 50 -5t34 -9l8 -7l-27 -135q-23 16 -86 17q-90 0 -147.5 -65.5t-57.5 -192.5v-707h-133z" />
<glyph unicode="s" horiz-adv-x="1056" d="M102 373l134 20q16 -154 93 -229.5t222 -75.5q139 0 206.5 52.5t67.5 138.5q0 90 -62.5 138t-258.5 101q-205 55 -285 124t-80 187q0 117 98.5 202t268.5 85q174 0 276.5 -85t132.5 -224l-122 -33q-61 225 -287 225q-117 0 -178.5 -51t-61.5 -119q0 -74 55.5 -109.5 t247.5 -90.5q219 -63 302 -137t83 -211q0 -129 -99 -220.5t-304 -91.5q-211 0 -323 112t-126 292z" />
<glyph unicode="t" horiz-adv-x="724" d="M72 963v122h155v267h129v-267h267v-122h-267v-652q0 -98 27 -139t104 -41h78v-131h-82q-260 0 -260 293v670h-151z" />
<glyph unicode="u" horiz-adv-x="1177" d="M174 377v708h133v-684q0 -168 65.5 -238.5t219.5 -70.5q131 0 199.5 84t68.5 227v682h133v-1085h-133v104h-4l-10 -15t-33 -31.5t-57.5 -41t-82.5 -33t-112 -14.5q-176 0 -281.5 99.5t-105.5 308.5z" />
<glyph unicode="v" horiz-adv-x="1105" d="M61 1085h138l352 -895h4l352 895h137l-438 -1085h-106z" />
<glyph unicode="w" horiz-adv-x="1599" d="M102 1085h134l184 -847h4l301 847h129l303 -847h4l203 847h133l-260 -1085h-121l-325 924h-5l-319 -924h-125z" />
<glyph unicode="x" horiz-adv-x="1019" d="M61 0l363 557l-340 528h154l270 -436h4l270 436h152l-338 -528l362 -557h-153l-295 465h-4l-293 -465h-152z" />
<glyph unicode="y" horiz-adv-x="1019" d="M51 1085h142l315 -833h4l315 833h142l-615 -1546h-131l221 557z" />
<glyph unicode="z" horiz-adv-x="1136" d="M123 0v100l715 858v5h-672v122h848v-96l-711 -862v-4h709v-123h-889z" />
<glyph unicode="{" horiz-adv-x="792" d="M123 492v182h57q59 0 84 29.5t25 95.5v426q0 156 63.5 213t182.5 57h114v-102h-102q-78 0 -112 -39t-34 -137v-424q0 -57 -18 -100.5t-46 -65t-46.5 -31.5t-32.5 -12q14 -4 31.5 -14.5t46.5 -32t47 -63.5t18 -95v-471q0 -98 34 -137t112 -39h102v-103h-114 q-119 0 -182.5 57.5t-63.5 213.5v473q0 66 -24.5 92.5t-84.5 26.5h-57z" />
<glyph unicode="|" horiz-adv-x="563" d="M225 -614v2201h113v-2201h-113z" />
<glyph unicode="}" horiz-adv-x="792" d="M41 -268h102q78 0 112 39t34 137v471q0 53 18.5 95t47 63.5t46 32t31.5 14.5q-14 2 -32.5 12t-46 31.5t-46 64.5t-18.5 101v424q0 98 -34 137t-112 39h-102v102h115q119 0 182 -57.5t63 -212.5v-426q0 -66 25 -95.5t84 -29.5h57v-182h-57q-59 0 -84 -26.5t-25 -92.5v-473 q0 -156 -63.5 -213.5t-181.5 -57.5h-115v103z" />
<glyph unicode="~" horiz-adv-x="1210" d="M123 674q61 272 268 272q86 0 163 -45t142.5 -89t120.5 -44q41 0 71 14.5t51.5 49t28.5 52t23 66.5l96 -37q-61 -272 -268 -272q-86 0 -163.5 44t-142.5 89t-120 45q-41 0 -70.5 -14t-51 -49t-28.5 -52.5t-24 -66.5z" />
<glyph unicode="&#xa1;" horiz-adv-x="667" d="M184 868v217h217v-217h-217zM225 -348v1022h133v-1022h-133z" />
<glyph unicode="&#xa2;" horiz-adv-x="1175" d="M133 543q0 252 124 402.5t316 168.5v178h72v-176q166 -10 281.5 -120.5t134.5 -280.5l-131 -21q-20 123 -91 207t-194 90v-899q127 10 197 101.5t88 214.5l133 -25q-18 -172 -132 -289t-286 -125v-194h-72v196q-201 16 -320.5 166t-119.5 406zM266 543q0 -199 81 -315.5 t226 -133.5v895q-139 -16 -223 -133.5t-84 -312.5z" />
<glyph unicode="&#xa3;" horiz-adv-x="1366" d="M205 0v123h78q78 0 106.5 29.5t28.5 105.5v404h-213v112h213v266q0 201 102.5 312.5t280.5 111.5q164 0 261 -98t122 -285l-129 -26q-25 147 -82.5 216.5t-175.5 69.5q-246 0 -246 -323v-244h430v-112h-430v-539h651v-123h-997z" />
<glyph unicode="&#xa4;" horiz-adv-x="1411" d="M184 233l133 134q-96 131 -96 307q0 170 96 305l-133 133l82 82l129 -131q137 117 310 117q180 0 313 -113l127 127l82 -82l-131 -131q94 -137 94 -307q0 -178 -96 -309l133 -132l-82 -81l-131 129q-131 -104 -309 -105q-182 0 -308 107l-131 -131zM377 672 q0 -188 97.5 -279.5t232.5 -91.5q133 0 229 91t96 280q0 193 -96 286t-229 93q-135 0 -232.5 -93.5t-97.5 -285.5z" />
<glyph unicode="&#xa5;" horiz-adv-x="1318" d="M123 1434h147l387 -693h5l387 693h147l-410 -719h369v-113h-426v-190h426v-113h-430v-299h-129v299h-430v113h426v190h-426v113h366z" />
<glyph unicode="&#xa6;" horiz-adv-x="583" d="M225 -268v669h133v-669h-133zM225 657v670h133v-670h-133z" />
<glyph unicode="&#xa7;" horiz-adv-x="1263" d="M145 600q-4 170 179 297q-92 92 -93 223q0 152 105.5 248t273.5 96q166 0 273.5 -94t132.5 -266l-125 -29q-25 127 -90.5 196.5t-190.5 69.5q-121 0 -183 -67.5t-62 -155.5q0 -78 45 -129t147 -92l277 -109q154 -59 218 -130t66 -171q4 -170 -178 -297q92 -92 92 -223 q0 -152 -105.5 -248t-273.5 -96q-166 0 -273.5 94.5t-131.5 266.5l125 28q25 -127 90 -196.5t190 -69.5q121 0 183.5 67.5t62.5 155.5q0 78 -45 129.5t-147 91.5l-277 109q-154 59 -218.5 130t-66.5 171zM279 612q0 -125 198 -202l303 -119l64 -33q141 96 141 217 q0 125 -199 203l-303 119l-63 32q-141 -96 -141 -217z" />
<glyph unicode="&#xa8;" horiz-adv-x="841" d="M143 1264v170h166v-170h-166zM532 1264v170h166v-170h-166z" />
<glyph unicode="&#xa9;" horiz-adv-x="1505" d="M121 725q0 266 181 447.5t447.5 181.5t448.5 -181.5t182 -447.5t-182 -448.5t-448.5 -182.5t-447.5 181.5t-181 449.5zM221 725q0 -227 152 -379.5t377 -152.5q227 0 378.5 152.5t151.5 379.5q0 225 -151.5 376.5t-378.5 151.5q-225 0 -377 -151.5t-152 -376.5zM446 713 q0 188 89.5 293.5t222.5 105.5q117 0 188.5 -75.5t83.5 -192.5l-106 -21q-25 186 -166 187q-88 0 -143.5 -77t-55.5 -220q0 -137 55.5 -210t143.5 -73q147 0 170 199l106 -21q-16 -125 -88 -201.5t-188 -76.5q-133 0 -222.5 101t-89.5 282z" />
<glyph unicode="&#xaa;" horiz-adv-x="755" d="M113 954q0 80 49 124t166 73q102 27 139 46.5t37 55.5q0 39 -31 66t-94 27q-121 0 -152 -123l-98 32q18 84 81.5 136.5t166.5 52.5q111 0 178.5 -59.5t67.5 -176.5v-422h-101v68h-4q-10 -27 -59 -56.5t-127 -29.5q-109 0 -164 52t-55 134zM223 961q0 -41 31 -67t90 -26 q80 0 123 37t43 88v148h-2q-19 -33 -154 -70q-76 -20 -103.5 -47t-27.5 -63z" />
<glyph unicode="&#xab;" horiz-adv-x="1130" d="M205 575l221 381h143l-223 -381l221 -370h-143zM582 575l221 381h143l-223 -381l221 -370h-143z" />
<glyph unicode="&#xac;" horiz-adv-x="1304" d="M143 801v123h977v-488h-133v365h-844z" />
<glyph unicode="&#xad;" horiz-adv-x="919" d="M123 641v133h674v-133h-674z" />
<glyph unicode="&#xae;" horiz-adv-x="966" d="M123 1083q0 156 102.5 259.5t253.5 103.5q156 0 260.5 -103.5t104.5 -259.5q0 -152 -104.5 -255t-260.5 -103q-150 0 -253 103.5t-103 254.5zM174 1083q0 -131 87 -218t218 -87q135 0 223.5 87t88.5 218q0 135 -88.5 222.5t-223.5 87.5q-131 0 -218 -87t-87 -223z M356 866v437h131q156 0 156 -125q0 -106 -111 -127l97 -185h-56l-98 183h-74v-183h-45zM401 1098h91q102 0 102 79.5t-102 79.5h-91v-159z" />
<glyph unicode="&#xaf;" horiz-adv-x="876" d="M143 1270v112h590v-112h-590z" />
<glyph unicode="&#xb0;" horiz-adv-x="808" d="M133 1286q0 119 78 202t192 83q119 0 196 -82t77 -203t-77 -200.5t-195.5 -79.5t-194.5 80.5t-76 199.5zM256 1286q0 -92 42 -132t105.5 -40t105.5 40t42 132q0 176 -147.5 176t-147.5 -176z" />
<glyph unicode="&#xb1;" horiz-adv-x="1224" d="M143 856v113h408v362h123v-362h407v-113h-407v-395h-123v395h-408zM164 207v123h897v-123h-897z" />
<glyph unicode="&#xb2;" horiz-adv-x="751" d="M82 1565q8 137 89 212.5t214 75.5q127 0 204 -71.5t77 -186.5q0 -55 -19.5 -99t-57.5 -78t-72 -55.5t-87 -47.5q-68 -37 -93.5 -51.5t-52 -34t-40.5 -39.5q-23 -33 -23 -96h449v-125h-582v96q0 111 53 186q6 8 13.5 15.5t13.5 14.5t16.5 14.5t16.5 12.5t18 13t19.5 12 t22.5 12.5t21.5 11.5t25 13t24.5 14q145 80 176 111q43 45 43 107q0 57 -45 101t-125 44q-166 0 -182 -197z" />
<glyph unicode="&#xb3;" horiz-adv-x="737" d="M51 1260l119 24q12 -113 59 -165t142 -52q90 0 135 44t45 114q0 78 -50 118.5t-141 40.5h-51v99h35q37 0 72 8t68.5 38t33.5 79q0 63 -41 100t-112 37q-137 0 -158 -154l-111 21q8 111 83 176t190 65q113 0 188.5 -62t75.5 -169q0 -72 -40 -117t-85 -59v-4 q61 -16 109.5 -72.5t48.5 -150.5q0 -113 -81 -187t-214 -74t-217.5 75t-102.5 227z" />
<glyph unicode="&#xb4;" horiz-adv-x="583" d="M123 1219l158 245h180l-217 -245h-121z" />
<glyph unicode="&#xb5;" horiz-adv-x="1241" d="M195 -461v1546h133v-663q0 -162 86 -246t225 -84q133 0 214 86t81 225v682h133v-1085h-133v104h-4q-12 -14 -36 -36.5t-101.5 -60.5t-161.5 -38q-203 0 -305 117v-547h-131z" />
<glyph unicode="&#xb6;" horiz-adv-x="1132" d="M41 971q0 158 96 249t242 91h569v-1590h-125v1467h-317v-1467h-135v910q-139 4 -234.5 98t-95.5 242z" />
<glyph unicode="&#xb7;" horiz-adv-x="626" d="M205 680v217h217v-217h-217z" />
<glyph unicode="&#xb8;" horiz-adv-x="579" d="M61 -356l60 82q76 -59 153 -60q123 0 123 92q0 84 -98 84q-33 0 -67.5 -9t-51.5 -19l-18 -11l-60 33l97 164h88l-76 -119q43 29 119 29q72 0 124 -40t52 -114q0 -84 -59.5 -136t-178.5 -52q-113 0 -207 76z" />
<glyph unicode="&#xb9;" horiz-adv-x="550" d="M72 1585v133l200 125h105v-874h-117v733z" />
<glyph unicode="&#xba;" horiz-adv-x="753" d="M92 1108q0 158 83 248t204 90q119 0 201 -90t82 -248q0 -160 -80 -250t-203 -90q-125 0 -206 90t-81 250zM205 1108q0 -113 47 -174.5t127 -61.5q76 0 122 62.5t46 173.5t-46 173t-122 62q-80 0 -127 -61t-47 -174z" />
<glyph unicode="&#xbb;" horiz-adv-x="1130" d="M143 956h144l221 -381l-219 -370h-144l222 370zM520 956h144l221 -381l-219 -370h-144l221 370z" />
<glyph unicode="&#xbc;" horiz-adv-x="1732" d="M92 1176v133l201 125h104v-875h-116v733zM279 -82l1001 1669l90 -57l-999 -1667zM973 217v111l332 546h174v-546h110v-111h-110v-215h-117v215h-389zM1083 328h279v448h-4z" />
<glyph unicode="&#xbd;" horiz-adv-x="1822" d="M92 1174v133l201 125h104v-875h-116v733zM279 -84l1001 1669l90 -57l-999 -1667zM1112 596q8 137 89 213t214 76q127 0 204 -72t77 -186q0 -55 -19.5 -99.5t-57.5 -78t-72 -55t-87 -48.5q-68 -37 -93.5 -51t-52 -33.5t-40.5 -40.5q-23 -33 -23 -96h449v-125h-582v96 q0 111 53 187q6 8 13.5 15t13.5 14t16.5 14.5t16.5 12.5t18.5 13t19.5 12.5t22.5 12.5t21.5 11t24.5 13.5t24.5 14.5q145 80 176 110q43 45 43 107q0 57 -45 101t-125 44q-166 0 -182 -196z" />
<glyph unicode="&#xbe;" horiz-adv-x="1832" d="M123 850l119 24q12 -113 59 -165t141 -52q90 0 135.5 44t45.5 114q0 78 -50.5 119t-140.5 41h-51v98h35q37 0 71.5 8.5t68.5 38t34 78.5q0 63 -41 100t-113 37q-137 0 -157 -153l-111 20q8 111 83 176.5t189 65.5q113 0 189 -62.5t76 -169.5q0 -72 -40 -116.5t-85 -59.5 v-4q61 -16 109 -72.5t48 -150.5q0 -113 -81 -186.5t-214 -73.5t-217 74.5t-102 226.5zM446 -82l1002 1669l90 -57l-999 -1667zM1114 217v111l332 546h174v-546h111v-111h-111v-215h-117v215h-389zM1225 328h278v448h-4z" />
<glyph unicode="&#xbf;" horiz-adv-x="1034" d="M61 -10q0 94 32 165.5t71 109.5t125 108q23 18 57.5 45.5t48 39t35 30t28.5 29.5t16 26.5t12 31t3 33.5v113h134v-129q0 -63 -30 -111.5t-130 -126.5q-78 -59 -107.5 -83.5t-77 -74t-64.5 -97.5t-17 -107q0 -96 67.5 -173t210.5 -77q283 0 303 324l133 -15 q-8 -188 -120.5 -309t-317.5 -121q-182 0 -297 102.5t-115 266.5zM442 868v217h217v-217h-217z" />
<glyph unicode="&#xc0;" horiz-adv-x="1269" d="M51 0l514 1434h140l514 -1434h-134l-108 309h-684l-109 -309h-133zM332 416h606l-301 856h-4zM354 1812h181l159 -245h-121z" />
<glyph unicode="&#xc1;" horiz-adv-x="1269" d="M51 0l514 1434h140l514 -1434h-134l-108 309h-684l-109 -309h-133zM332 416h606l-301 856h-4zM588 1567l160 245h180l-219 -245h-121z" />
<glyph unicode="&#xc2;" horiz-adv-x="1269" d="M51 0l514 1434h140l514 -1434h-134l-108 309h-684l-109 -309h-133zM332 416h606l-301 856h-4zM403 1597l136 175h204l136 -175l-84 -67l-154 192l-154 -192z" />
<glyph unicode="&#xc3;" horiz-adv-x="1269" d="M51 0l514 1434h140l514 -1434h-134l-108 309h-684l-109 -309h-133zM332 416h606l-301 856h-4zM367 1567q39 180 174 180q51 0 120.5 -38t106.5 -38q55 0 72 66h75q-18 -82 -55 -131.5t-117 -49.5q-51 0 -121.5 38t-107.5 38q-56 1 -72 -65h-75z" />
<glyph unicode="&#xc4;" horiz-adv-x="1269" d="M51 0l514 1434h140l514 -1434h-134l-108 309h-684l-109 -309h-133zM332 416h606l-301 856h-4zM365 1567v170h165v-170h-165zM754 1567v170h166v-170h-166z" />
<glyph unicode="&#xc5;" horiz-adv-x="1269" d="M51 0l510 1423q-53 23 -85 74t-32 115q0 86 56.5 145.5t140.5 59.5q86 0 141.5 -58.5t55.5 -146.5q0 -70 -35 -122t-94 -73l510 -1417h-134l-108 309h-684l-109 -309h-133zM332 416h606l-301 856h-4zM541 1613.5q0 -59.5 29.5 -92t70.5 -32.5t71.5 32.5t30.5 92 t-29.5 90.5t-72.5 31q-41 0 -70.5 -31t-29.5 -90.5z" />
<glyph unicode="&#xc6;" horiz-adv-x="1763" d="M51 0l539 1434h1020v-123h-652v-512h594v-119h-594v-557h652v-123h-785v324h-518l-119 -324h-137zM346 438h479v873h-155z" />
<glyph unicode="&#xc7;" horiz-adv-x="1382" d="M123 729q0 350 176 542.5t426 192.5q217 0 363.5 -138t177.5 -355l-138 -27q-31 172 -130 281.5t-273 109.5q-199 0 -329 -153.5t-130 -452.5q0 -303 127 -465t332 -162q356 0 403 424l142 -20q-20 -229 -144.5 -368.5t-320.5 -162.5l-60 -94q43 29 119 29q72 0 124 -40 t52 -114q0 -84 -59 -136t-178 -52q-113 0 -207 76l59 82q76 -59 154 -60q123 0 123 92q0 84 -98 84q-33 0 -68 -9t-53 -19l-17 -11l-59 33l78 133q-119 2 -221.5 46t-187.5 131t-134 236.5t-49 346.5z" />
<glyph unicode="&#xc8;" d="M205 0v1434h846v-123h-713v-512h655v-119h-655v-557h713v-123h-846zM393 1812h180l160 -245h-121z" />
<glyph unicode="&#xc9;" d="M205 0v1434h846v-123h-713v-512h655v-119h-655v-557h713v-123h-846zM578 1567l159 245h181l-220 -245h-120z" />
<glyph unicode="&#xca;" d="M205 0v1434h846v-123h-713v-512h655v-119h-655v-557h713v-123h-846zM424 1597l135 175h205l135 -175l-84 -67l-153 192l-154 -192z" />
<glyph unicode="&#xcb;" d="M205 0v1434h846v-123h-713v-512h655v-119h-655v-557h713v-123h-846zM354 1567v170h166v-170h-166zM743 1567v170h166v-170h-166z" />
<glyph unicode="&#xcc;" horiz-adv-x="563" d="M-33 1812h180l160 -245h-121zM215 0v1434h133v-1434h-133z" />
<glyph unicode="&#xcd;" horiz-adv-x="563" d="M201 1567l159 245h181l-219 -245h-121zM215 0v1434h133v-1434h-133z" />
<glyph unicode="&#xce;" horiz-adv-x="563" d="M39 1597l135 175h205l135 -175l-84 -67l-154 192l-153 -192zM215 0v1434h133v-1434h-133z" />
<glyph unicode="&#xcf;" horiz-adv-x="563" d="M-6 1567v170h166v-170h-166zM215 0v1434h133v-1434h-133zM383 1567v170h166v-170h-166z" />
<glyph unicode="&#xd0;" horiz-adv-x="1443" d="M92 692v123h139v619h480q125 0 234.5 -43t197.5 -128t138 -224.5t50 -319.5q0 -199 -52 -343.5t-144.5 -223t-200 -115.5t-236.5 -37h-467v692h-139zM365 123h313q510 0 510 596q0 293 -130 442.5t-368 149.5h-325v-496h415v-123h-415v-569z" />
<glyph unicode="&#xd1;" horiz-adv-x="1396" d="M205 0v1434h182l668 -1244h4v1244h133v-1434h-176l-674 1243h-4v-1243h-133zM459 1567q39 180 174 180q51 0 120.5 -38t106.5 -38q55 0 72 66h76q-18 -82 -55.5 -131.5t-116.5 -49.5q-51 0 -122 38t-108 38q-55 1 -71 -65h-76z" />
<glyph unicode="&#xd2;" horiz-adv-x="1439" d="M123 729q0 350 176 542.5t426 192.5q244 0 418 -196.5t174 -548.5q0 -199 -49 -348.5t-134 -234.5t-187.5 -126t-221.5 -41q-121 0 -225.5 43t-190.5 130t-136 237.5t-50 349.5zM266 729q0 -305 127 -468t332 -163q201 0 325 159t124 462q0 299 -128 457.5t-321 158.5 q-199 0 -329 -153.5t-130 -452.5zM457 1812h180l160 -245h-121z" />
<glyph unicode="&#xd3;" horiz-adv-x="1439" d="M123 729q0 350 176 542.5t426 192.5q244 0 418 -196.5t174 -548.5q0 -199 -49 -348.5t-134 -234.5t-187.5 -126t-221.5 -41q-121 0 -225.5 43t-190.5 130t-136 237.5t-50 349.5zM266 729q0 -305 127 -468t332 -163q201 0 325 159t124 462q0 299 -128 457.5t-321 158.5 q-199 0 -329 -153.5t-130 -452.5zM666 1567l159 245h181l-220 -245h-120z" />
<glyph unicode="&#xd4;" horiz-adv-x="1439" d="M123 729q0 350 176 542.5t426 192.5q244 0 418 -196.5t174 -548.5q0 -199 -49 -348.5t-134 -234.5t-187.5 -126t-221.5 -41q-121 0 -225.5 43t-190.5 130t-136 237.5t-50 349.5zM266 729q0 -305 127 -468t332 -163q201 0 325 159t124 462q0 299 -128 457.5t-321 158.5 q-199 0 -329 -153.5t-130 -452.5zM508 1597l135 175h205l135 -175l-84 -67l-154 192l-153 -192z" />
<glyph unicode="&#xd5;" horiz-adv-x="1439" d="M123 729q0 350 176 542.5t426 192.5q244 0 418 -196.5t174 -548.5q0 -199 -49 -348.5t-134 -234.5t-187.5 -126t-221.5 -41q-121 0 -225.5 43t-190.5 130t-136 237.5t-50 349.5zM266 729q0 -305 127 -468t332 -163q201 0 325 159t124 462q0 299 -128 457.5t-321 158.5 q-199 0 -329 -153.5t-130 -452.5zM465 1567q39 180 174 180q51 0 120.5 -38t106.5 -38q55 0 72 66h76q-18 -82 -55 -131.5t-117 -49.5q-51 0 -122 38t-108 38q-55 1 -71 -65h-76z" />
<glyph unicode="&#xd6;" horiz-adv-x="1439" d="M123 729q0 350 176 542.5t426 192.5q244 0 418 -196.5t174 -548.5q0 -199 -49 -348.5t-134 -234.5t-187.5 -126t-221.5 -41q-121 0 -225.5 43t-190.5 130t-136 237.5t-50 349.5zM266 729q0 -305 127 -468t332 -163q201 0 325 159t124 462q0 299 -128 457.5t-321 158.5 q-199 0 -329 -153.5t-130 -452.5zM463 1567v170h166v-170h-166zM852 1567v170h166v-170h-166z" />
<glyph unicode="&#xd7;" horiz-adv-x="1128" d="M123 336l352 352l-332 332l88 88l332 -332l334 332l88 -88l-334 -332l355 -352l-88 -88l-355 352l-352 -352z" />
<glyph unicode="&#xd8;" horiz-adv-x="1439" d="M123 729q0 350 176 542.5t426 192.5q170 0 313 -102l60 102l73 -43l-65 -114q211 -211 211 -588q0 -199 -49 -348.5t-134 -234.5t-187.5 -126t-221.5 -41q-184 0 -330 97l-55 -97l-76 41l64 113q-205 199 -205 606zM266 729q0 -307 135 -479l574 999q-111 86 -250 86 q-199 0 -329 -153.5t-130 -452.5zM465 186q106 -88 260 -88q201 0 325 159t124 462q-1 301 -138 469z" />
<glyph unicode="&#xd9;" horiz-adv-x="1345" d="M174 467v967h133v-955q0 -381 365 -381q180 0 273 95.5t93 281.5v959h133v-967q0 -246 -129 -372t-370.5 -126t-369.5 126t-128 372zM438 1812h180l160 -245h-121z" />
<glyph unicode="&#xda;" horiz-adv-x="1345" d="M174 467v967h133v-955q0 -381 365 -381q180 0 273 95.5t93 281.5v959h133v-967q0 -246 -129 -372t-370.5 -126t-369.5 126t-128 372zM649 1567l160 245h180l-219 -245h-121z" />
<glyph unicode="&#xdb;" horiz-adv-x="1345" d="M174 467v967h133v-955q0 -381 365 -381q180 0 273 95.5t93 281.5v959h133v-967q0 -246 -129 -372t-370.5 -126t-369.5 126t-128 372zM465 1597l135 175h205l135 -175l-84 -67l-154 192l-153 -192z" />
<glyph unicode="&#xdc;" horiz-adv-x="1345" d="M174 467v967h133v-955q0 -381 365 -381q180 0 273 95.5t93 281.5v959h133v-967q0 -246 -129 -372t-370.5 -126t-369.5 126t-128 372zM416 1567v170h166v-170h-166zM805 1567v170h166v-170h-166z" />
<glyph unicode="&#xdd;" horiz-adv-x="1155" d="M41 1434h149l385 -703h7l383 703h149l-473 -830v-604h-127v604zM535 1567l159 245h180l-219 -245h-120z" />
<glyph unicode="&#xde;" horiz-adv-x="1361" d="M205 0v1434h133v-238h448q229 0 361.5 -117.5t132.5 -339.5q0 -223 -126 -338.5t-368 -115.5h-448v-285h-133zM338 408h428q176 0 278.5 78.5t102.5 252.5q0 334 -381 334h-428v-665z" />
<glyph unicode="&#xdf;" horiz-adv-x="1191" d="M164 0v1010q0 219 119.5 336.5t306.5 117.5q180 0 298 -104.5t118 -278.5q0 -66 -22.5 -121t-55.5 -85.5t-57.5 -46t-39.5 -19.5v-4q12 -2 35 -11.5t60 -36t67.5 -65.5t53 -105.5t22.5 -148.5q0 -219 -115.5 -328.5t-361.5 -109.5h-66v123h56q184 0 269 78t85 237 q0 293 -307 293h-103v121h64q129 0 205.5 56.5t76.5 172.5q0 123 -74.5 191.5t-207.5 68.5q-285 0 -285 -348v-993h-141z" />
<glyph unicode="&#xe0;" horiz-adv-x="1103" d="M113 274.5q0 133.5 81.5 211t280.5 128.5q63 16 86 22.5t73 22t69.5 27.5t46 32.5t37 44t10.5 52.5q0 78 -59.5 128t-182.5 50q-231 0 -276 -229l-127 29q20 145 124.5 234t272.5 89q391 0 391 -371v-745h-123v125h-4q-33 -61 -124 -108.5t-220 -47.5q-174 0 -265 86 t-91 219.5zM246 283q0 -190 233 -191q156 0 242 73t86 179v299h-4q-27 -63 -293 -137q-154 -43 -209 -92t-55 -131zM315 1464h181l159 -245h-120z" />
<glyph unicode="&#xe1;" horiz-adv-x="1103" d="M113 274.5q0 133.5 81.5 211t280.5 128.5q63 16 86 22.5t73 22t69.5 27.5t46 32.5t37 44t10.5 52.5q0 78 -59.5 128t-182.5 50q-231 0 -276 -229l-127 29q20 145 124.5 234t272.5 89q391 0 391 -371v-745h-123v125h-4q-33 -61 -124 -108.5t-220 -47.5q-174 0 -265 86 t-91 219.5zM246 283q0 -190 233 -191q156 0 242 73t86 179v299h-4q-27 -63 -293 -137q-154 -43 -209 -92t-55 -131zM481 1219l158 245h180l-217 -245h-121z" />
<glyph unicode="&#xe2;" horiz-adv-x="1103" d="M113 274.5q0 133.5 81.5 211t280.5 128.5q63 16 86 22.5t73 22t69.5 27.5t46 32.5t37 44t10.5 52.5q0 78 -59.5 128t-182.5 50q-231 0 -276 -229l-127 29q20 145 124.5 234t272.5 89q391 0 391 -371v-745h-123v125h-4q-33 -61 -124 -108.5t-220 -47.5q-174 0 -265 86 t-91 219.5zM246 283q0 -190 233 -191q156 0 242 73t86 179v299h-4q-27 -63 -293 -137q-154 -43 -209 -92t-55 -131zM338 1260l135 174h205l135 -174l-84 -68l-154 192l-153 -192z" />
<glyph unicode="&#xe3;" horiz-adv-x="1103" d="M113 274.5q0 133.5 81.5 211t280.5 128.5q63 16 86 22.5t73 22t69.5 27.5t46 32.5t37 44t10.5 52.5q0 78 -59.5 128t-182.5 50q-231 0 -276 -229l-127 29q20 145 124.5 234t272.5 89q391 0 391 -371v-745h-123v125h-4q-33 -61 -124 -108.5t-220 -47.5q-174 0 -265 86 t-91 219.5zM246 283q0 -190 233 -191q156 0 242 73t86 179v299h-4q-27 -63 -293 -137q-154 -43 -209 -92t-55 -131zM297 1239q39 180 174 180q51 0 121 -38t106 -38q55 0 72 66h76q-18 -82 -55 -131t-117 -49q-51 0 -122 38t-108 38q-55 0 -71 -66h-76z" />
<glyph unicode="&#xe4;" horiz-adv-x="1103" d="M113 274.5q0 133.5 81.5 211t280.5 128.5q63 16 86 22.5t73 22t69.5 27.5t46 32.5t37 44t10.5 52.5q0 78 -59.5 128t-182.5 50q-231 0 -276 -229l-127 29q20 145 124.5 234t272.5 89q391 0 391 -371v-745h-123v125h-4q-33 -61 -124 -108.5t-220 -47.5q-174 0 -265 86 t-91 219.5zM246 283q0 -190 233 -191q156 0 242 73t86 179v299h-4q-27 -63 -293 -137q-154 -43 -209 -92t-55 -131zM295 1264v170h166v-170h-166zM684 1264v170h166v-170h-166z" />
<glyph unicode="&#xe5;" horiz-adv-x="1103" d="M113 274.5q0 133.5 81.5 211t280.5 128.5q63 16 86 22.5t73 22t69.5 27.5t46 32.5t37 44t10.5 52.5q0 78 -59.5 128t-182.5 50q-231 0 -276 -229l-127 29q16 121 93 204.5t201 108.5q-82 59 -81 170q0 86 56 145.5t140 59.5q86 0 141.5 -58.5t55.5 -146.5 q0 -115 -84 -172q266 -57 266 -359v-745h-123v125h-4q-33 -61 -124 -108.5t-220 -47.5q-174 0 -265 86t-91 219.5zM246 283q0 -190 233 -191q156 0 242 73t86 179v299h-4q-27 -63 -293 -137q-154 -43 -209 -92t-55 -131zM461 1278q0 -59 29.5 -92t70.5 -33t72 33t31 92 t-30 90t-73 31q-41 0 -70.5 -31t-29.5 -90z" />
<glyph unicode="&#xe6;" horiz-adv-x="1898" d="M113 274q0 131 80.5 207t283.5 131q201 55 256 93q63 43 64 110q0 78 -59.5 128t-182.5 50q-231 0 -276 -229l-127 29q20 145 124.5 234t272.5 89q281 0 362 -201q139 201 389 201q219 0 352.5 -151.5t133.5 -421.5v-39h-844q0 -166 96.5 -289t272.5 -123 q86 0 149.5 24.5t102.5 73t55.5 77t36.5 77.5l117 -59q-47 -133 -167 -224.5t-290 -91.5q-166 0 -276.5 81t-151.5 163h-4q-84 -244 -414 -244q-174 0 -265 86t-91 219zM244 283q0 -190 235 -191q156 0 242 73t86 179v299h-4q-27 -63 -293 -137q-154 -43 -210 -92t-56 -131z M946 616h703q0 66 -17.5 128.5t-55.5 121t-109.5 93t-166 34.5t-167 -39t-111.5 -99t-57.5 -122t-18.5 -117z" />
<glyph unicode="&#xe7;" horiz-adv-x="1144" d="M113 543q0 268 139 420.5t348 152.5q174 0 298 -112.5t142 -288.5l-131 -21q-20 127 -97 213t-210 86q-160 0 -258 -118.5t-98 -331.5q0 -215 95 -333t259 -118q139 0 215 93.5t94 222.5l133 -25q-18 -170 -129.5 -285.5t-281.5 -126.5l-56 -90q43 29 119 29 q72 0 124 -40t52 -114q0 -84 -59 -136t-178 -52q-113 0 -207 76l59 82q76 -59 154 -60q123 0 123 92q0 84 -98 84q-33 0 -68 -9t-51 -19l-19 -11l-59 33l80 135q-197 18 -315.5 168t-118.5 404z" />
<glyph unicode="&#xe8;" d="M113 543q0 260 138 416.5t355 156.5q219 0 352.5 -151.5t133.5 -421.5v-39h-844q0 -166 93 -289t269 -123q70 0 127.5 18.5t90 40t63.5 60.5t40 57t25 51l113 -61q-53 -123 -170 -206t-285 -83q-219 0 -360 157t-141 417zM252 616h702q0 66 -17 128.5t-55 121t-110 93 t-166 34.5t-166.5 -39t-111.5 -99t-57.5 -122t-18.5 -117zM354 1464h181l159 -245h-121z" />
<glyph unicode="&#xe9;" d="M113 543q0 260 138 416.5t355 156.5q219 0 352.5 -151.5t133.5 -421.5v-39h-844q0 -166 93 -289t269 -123q70 0 127.5 18.5t90 40t63.5 60.5t40 57t25 51l113 -61q-53 -123 -170 -206t-285 -83q-219 0 -360 157t-141 417zM252 616h702q0 66 -17 128.5t-55 121t-110 93 t-166 34.5t-166.5 -39t-111.5 -99t-57.5 -122t-18.5 -117zM582 1219l157 245h181l-218 -245h-120z" />
<glyph unicode="&#xea;" d="M113 543q0 260 138 416.5t355 156.5q219 0 352.5 -151.5t133.5 -421.5v-39h-844q0 -166 93 -289t269 -123q70 0 127.5 18.5t90 40t63.5 60.5t40 57t25 51l113 -61q-53 -123 -170 -206t-285 -83q-219 0 -360 157t-141 417zM252 616h702q0 66 -17 128.5t-55 121t-110 93 t-166 34.5t-166.5 -39t-111.5 -99t-57.5 -122t-18.5 -117zM406 1260l135 174h204l136 -174l-84 -68l-154 192l-154 -192z" />
<glyph unicode="&#xeb;" d="M113 543q0 260 138 416.5t355 156.5q219 0 352.5 -151.5t133.5 -421.5v-39h-844q0 -166 93 -289t269 -123q70 0 127.5 18.5t90 40t63.5 60.5t40 57t25 51l113 -61q-53 -123 -170 -206t-285 -83q-219 0 -360 157t-141 417zM252 616h702q0 66 -17 128.5t-55 121t-110 93 t-166 34.5t-166.5 -39t-111.5 -99t-57.5 -122t-18.5 -117zM367 1264v170h165v-170h-165zM756 1264v170h166v-170h-166z" />
<glyph unicode="&#xec;" horiz-adv-x="491" d="M-29 1464h181l159 -245h-121zM184 0v1085h123v-1085h-123z" />
<glyph unicode="&#xed;" horiz-adv-x="491" d="M184 0v1085h123v-1085h-123zM199 1219l157 245h181l-218 -245h-120z" />
<glyph unicode="&#xee;" horiz-adv-x="491" d="M33 1260l135 174h205l135 -174l-84 -68l-154 192l-153 -192zM184 0v1085h123v-1085h-123z" />
<glyph unicode="&#xef;" horiz-adv-x="491" d="M0 1264v170h166v-170h-166zM184 0v1085h123v-1085h-123zM389 1264v170h166v-170h-166z" />
<glyph unicode="&#xf0;" horiz-adv-x="1179" d="M113 545q0 274 129 422.5t329 148.5q190 0 295 -117l4 2q-59 182 -190 359l-309 -88l-25 82l277 76q-72 86 -142 151v6h160q55 -59 104 -123l273 76l24 -80l-245 -67q270 -393 270 -850q0 -272 -128 -423t-345 -151q-221 0 -351 148.5t-130 427.5zM236 541 q0 -227 96 -341t262 -114q164 0 255 114.5t91 340.5q0 217 -93 340t-274 123q-154 0 -245.5 -116t-91.5 -347z" />
<glyph unicode="&#xf1;" horiz-adv-x="1212" d="M184 0v1085h133v-104h5q43 59 132 97t183 38q176 0 288.5 -108.5t112.5 -294.5v-713h-133v664q0 162 -70.5 245.5t-205.5 83.5q-137 0 -224.5 -76.5t-87.5 -214.5v-702h-133zM346 1239q39 180 174 180q51 0 121 -38t107 -38q55 0 71 66h76q-18 -82 -55 -131t-117 -49 q-51 0 -122 38t-107 38q-56 0 -72 -66h-76z" />
<glyph unicode="&#xf2;" horiz-adv-x="1189" d="M113 543q0 266 141 419.5t346 153.5q201 0 339 -153.5t138 -419.5q0 -270 -134 -422t-343 -152q-213 0 -350 152.5t-137 421.5zM246 543q0 -215 101 -333t253 -118q147 0 245.5 120t98.5 331q0 213 -97 331.5t-247 118.5q-156 0 -255 -117.5t-99 -332.5zM334 1464h180 l160 -245h-121z" />
<glyph unicode="&#xf3;" horiz-adv-x="1189" d="M113 543q0 266 141 419.5t346 153.5q201 0 339 -153.5t138 -419.5q0 -270 -134 -422t-343 -152q-213 0 -350 152.5t-137 421.5zM246 543q0 -215 101 -333t253 -118q147 0 245.5 120t98.5 331q0 213 -97 331.5t-247 118.5q-156 0 -255 -117.5t-99 -332.5zM553 1219 l158 245h180l-217 -245h-121z" />
<glyph unicode="&#xf4;" horiz-adv-x="1189" d="M113 543q0 266 141 419.5t346 153.5q201 0 339 -153.5t138 -419.5q0 -270 -134 -422t-343 -152q-213 0 -350 152.5t-137 421.5zM246 543q0 -215 101 -333t253 -118q147 0 245.5 120t98.5 331q0 213 -97 331.5t-247 118.5q-156 0 -255 -117.5t-99 -332.5zM383 1260 l135 174h205l135 -174l-84 -68l-153 192l-154 -192z" />
<glyph unicode="&#xf5;" horiz-adv-x="1189" d="M113 543q0 266 141 419.5t346 153.5q201 0 339 -153.5t138 -419.5q0 -270 -134 -422t-343 -152q-213 0 -350 152.5t-137 421.5zM246 543q0 -215 101 -333t253 -118q147 0 245.5 120t98.5 331q0 213 -97 331.5t-247 118.5q-156 0 -255 -117.5t-99 -332.5zM344 1239 q39 180 174 180q51 0 121 -38t106 -38q55 0 72 66h76q-18 -82 -55 -131t-117 -49q-51 0 -122 38t-107 38q-56 0 -72 -66h-76z" />
<glyph unicode="&#xf6;" horiz-adv-x="1189" d="M113 543q0 266 141 419.5t346 153.5q201 0 339 -153.5t138 -419.5q0 -270 -134 -422t-343 -152q-213 0 -350 152.5t-137 421.5zM246 543q0 -215 101 -333t253 -118q147 0 245.5 120t98.5 331q0 213 -97 331.5t-247 118.5q-156 0 -255 -117.5t-99 -332.5zM338 1264v170 h166v-170h-166zM727 1264v170h166v-170h-166z" />
<glyph unicode="&#xf7;" horiz-adv-x="1032" d="M123 664v122h786v-122h-786zM385 293q0 55 38 93t91 38q55 0 93 -38t38 -93q0 -53 -38 -91t-93 -38q-53 0 -91 38t-38 91zM385 1159q0 55 38 93t91 38q55 0 93 -38t38 -93q0 -53 -38 -91t-93 -38q-53 0 -91 38t-38 91z" />
<glyph unicode="&#xf8;" horiz-adv-x="1189" d="M113 543q0 266 141 419.5t346 153.5q174 0 301 -115l82 105l61 -49l-90 -115q123 -156 123 -399q0 -270 -134 -422t-343 -152q-186 0 -313 115l-82 -104l-62 47l90 114q-121 154 -120 402zM246 543q-1 -176 71 -293l506 651q-92 92 -223 92q-156 0 -255 -117.5 t-99 -332.5zM367 188q92 -96 233 -96q147 0 245.5 120t98.5 331q0 176 -72 293z" />
<glyph unicode="&#xf9;" horiz-adv-x="1146" d="M113 377v708h133v-684q0 -168 65.5 -238.5t218.5 -70.5q131 0 200 84t69 227v682h133v-1085h-133v104h-4q-4 -6 -10.5 -15t-33 -31.5t-57 -41t-83 -33t-111.5 -14.5q-176 0 -281.5 99.5t-105.5 308.5zM279 1464h180l159 -245h-120z" />
<glyph unicode="&#xfa;" horiz-adv-x="1146" d="M113 377v708h133v-684q0 -168 65.5 -238.5t218.5 -70.5q131 0 200 84t69 227v682h133v-1085h-133v104h-4q-4 -6 -10.5 -15t-33 -31.5t-57 -41t-83 -33t-111.5 -14.5q-176 0 -281.5 99.5t-105.5 308.5zM471 1219l158 245h180l-217 -245h-121z" />
<glyph unicode="&#xfb;" horiz-adv-x="1146" d="M113 377v708h133v-684q0 -168 65.5 -238.5t218.5 -70.5q131 0 200 84t69 227v682h133v-1085h-133v104h-4q-4 -6 -10.5 -15t-33 -31.5t-57 -41t-83 -33t-111.5 -14.5q-176 0 -281.5 99.5t-105.5 308.5zM309 1260l135 174h205l135 -174l-84 -68l-153 192l-154 -192z" />
<glyph unicode="&#xfc;" horiz-adv-x="1146" d="M113 377v708h133v-684q0 -168 65.5 -238.5t218.5 -70.5q131 0 200 84t69 227v682h133v-1085h-133v104h-4q-4 -6 -10.5 -15t-33 -31.5t-57 -41t-83 -33t-111.5 -14.5q-176 0 -281.5 99.5t-105.5 308.5zM258 1264v170h166v-170h-166zM647 1264v170h166v-170h-166z" />
<glyph unicode="&#xfd;" horiz-adv-x="1019" d="M51 1085h142l315 -833h4l315 833h142l-615 -1546h-131l221 557zM463 1219l158 245h180l-217 -245h-121z" />
<glyph unicode="&#xfe;" horiz-adv-x="1216" d="M184 -461v1956h131v-522h4q113 143 314 143q207 0 339 -157.5t132 -415.5q0 -262 -128 -418t-343 -156q-94 0 -182.5 39t-128.5 96h-5v-565h-133zM317 332q0 -96 85 -168t210 -72q176 0 267.5 119t91.5 332q0 211 -92.5 330.5t-266.5 119.5q-133 0 -214 -87t-81 -191 v-383z" />
<glyph unicode="&#xff;" horiz-adv-x="1019" d="M51 1085h142l315 -833h4l315 833h142l-615 -1546h-131l221 557zM242 1264v170h166v-170h-166zM631 1264v170h166v-170h-166z" />
<glyph unicode="&#x152;" horiz-adv-x="2074" d="M123 729q0 178 52 321.5t139 232.5t194.5 135t226.5 46q213 0 361 -133v103h825v-123h-682v-496h625v-119h-625v-573h682v-123h-825v102q-145 -133 -361 -133q-121 0 -226.5 43t-194.5 130t-140 237.5t-51 349.5zM266 729q0 -303 131 -467t338 -164q234 1 361 191v858 q-129 188 -361 188q-201 0 -335 -154.5t-134 -451.5z" />
<glyph unicode="&#x153;" horiz-adv-x="2035" d="M113 543q0 266 141 419.5t346 153.5q129 0 238.5 -68.5t171.5 -195.5q63 127 173.5 195.5t254.5 68.5q219 0 352 -151.5t133 -421.5v-39h-844q0 -166 96.5 -289t272.5 -123q88 0 153.5 24.5t105.5 73t55.5 76t35.5 76.5l111 -57q-47 -133 -167 -224.5t-290 -91.5 q-143 0 -259 68.5t-179 193.5q-61 -127 -169 -194.5t-245 -67.5q-213 0 -350 152.5t-137 421.5zM246 543q0 -215 101 -333t253 -118q147 0 245.5 120t98.5 331q0 213 -97 331.5t-247 118.5q-156 0 -255 -117.5t-99 -332.5zM1083 616h703q0 66 -17.5 128.5t-55.5 121 t-109.5 93t-166 34.5t-167 -39t-111.5 -99t-57.5 -122t-18.5 -117z" />
<glyph unicode="&#x178;" horiz-adv-x="1155" d="M41 1434h149l385 -703h7l383 703h149l-473 -830v-604h-127v604zM322 1567v170h165v-170h-165zM711 1567v170h166v-170h-166z" />
<glyph unicode="&#x2c6;" horiz-adv-x="638" d="M82 1260l135 174h205l135 -174l-84 -68l-154 192l-153 -192z" />
<glyph unicode="&#x2dc;" horiz-adv-x="794" d="M123 1239q39 180 174 180q51 0 120.5 -38t106.5 -38q55 0 72 66h76q-18 -82 -55 -131t-117 -49q-51 0 -122 38t-108 38q-55 0 -71 -66h-76z" />
<glyph unicode="&#x2000;" horiz-adv-x="926" />
<glyph unicode="&#x2001;" horiz-adv-x="1853" />
<glyph unicode="&#x2002;" horiz-adv-x="926" />
<glyph unicode="&#x2003;" horiz-adv-x="1853" />
<glyph unicode="&#x2004;" horiz-adv-x="617" />
<glyph unicode="&#x2005;" horiz-adv-x="463" />
<glyph unicode="&#x2006;" horiz-adv-x="308" />
<glyph unicode="&#x2007;" horiz-adv-x="308" />
<glyph unicode="&#x2008;" horiz-adv-x="231" />
<glyph unicode="&#x2009;" horiz-adv-x="370" />
<glyph unicode="&#x200a;" horiz-adv-x="102" />
<glyph unicode="&#x2010;" horiz-adv-x="919" d="M123 641v133h674v-133h-674z" />
<glyph unicode="&#x2011;" horiz-adv-x="919" d="M123 641v133h674v-133h-674z" />
<glyph unicode="&#x2012;" horiz-adv-x="919" d="M123 641v133h674v-133h-674z" />
<glyph unicode="&#x2013;" horiz-adv-x="1267" d="M123 651v123h1022v-123h-1022z" />
<glyph unicode="&#x2014;" horiz-adv-x="2066" d="M225 651v123h1616v-123h-1616z" />
<glyph unicode="&#x2018;" horiz-adv-x="626" d="M123 1247v187h217v-217h-96q0 -105 96 -121v-78q-217 16 -217 229z" />
<glyph unicode="&#x2019;" horiz-adv-x="626" d="M205 1018v78q96 16 96 121h-96v217h217v-187q0 -213 -217 -229z" />
<glyph unicode="&#x201a;" horiz-adv-x="626" d="M164 0v217h217v-186q0 -214 -217 -230v78q96 16 96 121h-96z" />
<glyph unicode="&#x201c;" horiz-adv-x="974" d="M123 1253v187h217v-217h-96q0 -105 96 -121v-78q-217 16 -217 229zM471 1253v187h217v-217h-96q0 -105 96 -121v-78q-217 16 -217 229z" />
<glyph unicode="&#x201d;" horiz-adv-x="974" d="M164 1024v78q96 16 96 121h-96v217h217v-187q0 -213 -217 -229zM512 1024v78q96 16 96 121h-96v217h217v-187q0 -213 -217 -229z" />
<glyph unicode="&#x201e;" horiz-adv-x="974" d="M205 0v217h217v-186q0 -214 -217 -230v78q96 16 96 121h-96zM553 0v217h217v-186q0 -214 -217 -230v78q96 16 96 121h-96z" />
<glyph unicode="&#x2022;" horiz-adv-x="595" d="M133 755.5q0 73.5 45 121t119 47.5t120 -47.5t46 -121t-46 -120.5t-120 -47t-119 47t-45 120.5z" />
<glyph unicode="&#x2026;" horiz-adv-x="1583" d="M205 0v217h217v-217h-217zM690 0v217h217v-217h-217zM1161 0v217h217v-217h-217z" />
<glyph unicode="&#x202f;" horiz-adv-x="370" />
<glyph unicode="&#x2039;" horiz-adv-x="755" d="M205 575l221 381h145l-223 -381l221 -370h-145z" />
<glyph unicode="&#x203a;" horiz-adv-x="755" d="M143 956h146l221 -381l-219 -370h-146l222 370z" />
<glyph unicode="&#x205f;" horiz-adv-x="463" />
<glyph unicode="&#x20ac;" horiz-adv-x="1656" d="M164 489v123h207q-4 74 -4 117q0 49 2 74h-205v123h219q49 260 212 399t374 139q217 0 363.5 -138t176.5 -355l-133 -27q-27 172 -129 284.5t-278 112.5q-164 0 -287 -106.5t-162 -308.5h432v-123h-446q-2 -25 -2 -74q0 -61 6 -117h442v-123h-424q41 -193 160 -295 t281 -102q188 0 288.5 119t118.5 315l137 -20q-23 -252 -169 -394.5t-375 -142.5q-209 0 -369 128t-211 392h-225z" />
<glyph unicode="&#x2122;" horiz-adv-x="1576" d="M123 1341v93h528v-93h-207v-602h-100v602h-221zM750 739v695h157l205 -543h4l211 543h158v-695h-103v592h-4l-225 -592h-76l-221 592h-4v-592h-102z" />
<glyph unicode="&#x25fc;" horiz-adv-x="1085" d="M0 0v1085h1085v-1085h-1085z" />
</font>
</defs>
</svg>
